<svg version="1.1" id="Layer_1" xmlns="http://www.w3.org/2000/svg" xmlns:xlink="http://www.w3.org/1999/xlink" x="0px" y="0px"
	 width="100%" viewBox="0 0 1024 1024" enable-background="new 0 0 1024 1024" xml:space="preserve">
<path fill="#000000" opacity="1.000000" stroke="none" 
	d="
M403.461365,422.645508 
	C357.363617,402.888123 311.612549,383.290039 265.855011,363.707092 
	C250.397873,357.091888 234.974411,350.393646 219.432343,343.983582 
	C213.655716,341.601105 209.812119,338.161499 209.662216,331.579254 
	C209.512558,325.006897 211.866638,321.842041 219.279465,318.637787 
	C250.916000,304.962463 282.561005,291.306763 314.188568,277.610748 
	C368.424591,254.124390 422.650543,230.614883 476.878876,207.110794 
	C484.972748,203.602707 493.117493,200.203720 501.128235,196.514313 
	C509.568909,192.626892 517.721069,193.027176 526.159607,196.714218 
	C573.141785,217.242020 620.168640,237.668045 667.215820,258.046539 
	C713.812500,278.229950 760.428650,298.368866 807.101746,318.374603 
	C812.702209,320.775177 816.514221,324.154144 816.685059,330.408020 
	C816.864929,336.992737 813.479553,341.224915 807.358582,343.695892 
	C799.180176,346.997437 791.182739,350.745453 783.024353,354.099274 
	C780.142212,355.284119 779.011169,356.981750 779.022156,360.114655 
	C779.124756,389.278168 779.127380,418.442139 779.083252,447.605865 
	C779.079041,450.374115 779.795471,452.284393 782.422791,453.638245 
	C785.510254,455.229248 787.484009,458.007294 788.268860,461.393982 
	C790.056458,469.107635 789.990906,476.864136 788.251953,484.580505 
	C787.808228,486.549591 786.881042,488.564423 785.221985,489.643005 
	C780.254211,492.872559 780.845764,497.331207 782.078735,502.000519 
	C786.191406,517.575073 790.363342,533.133972 794.460815,548.712463 
	C797.584534,560.588684 793.205811,566.319580 781.076416,566.329834 
	C770.577393,566.338684 760.078308,566.340210 749.579285,566.327759 
	C736.585938,566.312439 732.276245,560.564514 735.645630,547.829224 
	C739.426636,533.538391 743.268494,519.262634 746.894043,504.932220 
	C748.371704,499.091614 749.547607,493.215210 743.604736,488.597565 
	C741.512085,486.971619 740.974731,484.065216 740.672668,481.359192 
	C740.005432,475.381195 739.925354,469.413147 740.658813,463.428864 
	C741.061401,460.143738 742.063782,456.749969 744.814941,455.223511 
	C749.697632,452.514313 749.727234,448.479706 749.702026,443.848053 
	C749.582214,421.850739 749.650513,399.852386 749.639282,377.854431 
	C749.635254,369.957397 748.013245,368.912628 740.742554,372.054504 
	C669.852966,402.688080 598.948547,433.287476 528.090576,463.994171 
	C518.871277,467.989380 510.038391,468.376770 500.645477,464.292999 
	C468.441223,450.291412 436.096619,436.612549 403.461365,422.645508 
z"/>
<path fill="#000000" opacity="1.000000" stroke="none" 
	d="
M478.452545,482.469574 
	C484.755341,485.202820 490.718384,487.765961 496.674164,490.346008 
	C507.813293,495.171539 518.874878,495.120514 530.041504,490.245636 
	C574.885620,470.668610 619.760986,451.163269 664.639954,431.666290 
	C675.171509,427.090973 685.744507,422.609222 696.341125,418.186951 
	C698.397034,417.328949 700.517944,415.887909 703.024963,417.324432 
	C703.978882,419.544891 703.360779,421.899323 703.365173,424.182495 
	C703.420166,452.839233 703.037476,481.503204 703.585510,510.149689 
	C703.829773,522.914856 698.871521,531.957764 689.057739,539.530396 
	C667.088623,556.482605 642.215393,567.281616 615.907104,575.222229 
	C590.493530,582.892822 564.473450,586.831116 537.998840,588.494263 
	C490.356812,591.487122 443.762817,586.302368 398.423981,571.237183 
	C376.671936,564.009460 356.451538,553.677979 337.627869,540.415405 
	C326.564911,532.620850 322.002167,522.295837 321.973297,509.370270 
	C321.910339,481.213409 321.917694,453.056427 321.915344,424.899475 
	C321.914581,415.974518 322.911133,415.256531 330.971375,418.722260 
	C364.000397,432.923798 397.012817,447.164185 430.018799,461.419312 
	C446.063293,468.348877 462.080139,475.342499 478.452545,482.469574 
z"/>
<path fill="#000000" opacity="1.000000" stroke="none" 
	d="
M714.468689,769.647888 
	C677.781372,768.496521 641.557678,767.415283 604.310120,766.303406 
	C630.970947,715.658020 630.873535,665.886169 603.954346,616.483643 
	C604.903625,615.059143 606.264587,615.009033 607.595398,614.944153 
	C609.591309,614.846802 611.589111,614.759705 613.586975,614.734863 
	C643.219299,614.366577 672.852478,614.059021 702.483765,613.622314 
	C712.797241,613.470337 723.107971,613.053772 733.416870,612.674438 
	C767.356323,611.425293 788.516052,631.990356 796.909241,658.725586 
	C804.494995,682.888794 804.585144,707.256653 795.136780,730.998413 
	C786.759521,752.048462 771.814331,766.168884 748.814697,769.730713 
	C737.635254,771.461914 726.229919,770.617981 714.468689,769.647888 
z"/>
<path fill="#000000" opacity="1.000000" stroke="none" 
	d="
M339.637939,682.304443 
	C337.331116,656.928894 330.772095,633.609802 314.424652,613.544495 
	C314.610229,612.588013 315.762756,612.707581 316.691956,612.727356 
	C341.485352,613.256470 366.278107,613.813477 391.070709,614.377991 
	C393.066467,614.423401 395.064911,614.693909 397.054199,614.626587 
	C416.543457,613.967041 435.985291,615.975891 455.464478,615.621887 
	C458.768433,615.561829 461.148193,616.953186 463.388885,619.127563 
	C474.921844,630.319092 481.196594,644.372864 484.558472,659.687256 
	C490.732758,687.813416 490.860840,715.737671 479.625641,742.884399 
	C476.480499,750.483704 472.187256,757.360474 466.188293,763.129028 
	C463.246155,765.958069 459.949280,767.229858 455.879608,767.285706 
	C441.565582,767.481873 427.255280,767.584717 412.937958,768.078003 
	C387.317200,768.960815 361.667847,769.026001 336.029755,769.383423 
	C329.570831,769.473511 323.134125,770.924622 315.040436,769.579712 
	C333.791473,743.235962 340.835052,714.093811 339.637939,682.304443 
z"/>
<path fill="#000000" opacity="1.000000" stroke="none" 
	d="
M579.363220,765.569214 
	C579.354370,783.840393 579.319458,801.672668 579.372925,819.504578 
	C579.383789,823.140625 579.202881,826.625977 575.595093,828.625732 
	C571.965088,830.637817 568.656860,829.620789 565.312805,827.502258 
	C556.731873,822.066040 547.941040,816.957581 539.422913,811.427246 
	C535.804260,809.077881 533.062744,808.675171 529.198669,811.355347 
	C520.859741,817.139526 512.107056,822.336853 503.431000,827.622253 
	C495.902435,832.208496 489.698029,828.786194 489.670105,820.081543 
	C489.615021,802.916199 489.653076,785.750610 489.655334,768.585083 
	C489.655823,764.737000 490.002655,761.303711 494.903107,760.336304 
	C497.381439,759.847046 498.075470,757.057861 499.146179,755.049561 
	C506.750366,740.786865 511.105896,725.579773 512.775391,709.489563 
	C514.927124,688.751648 513.851013,668.351624 507.782379,648.309265 
	C505.069916,639.351196 501.613037,630.743591 496.615570,622.789795 
	C495.495453,621.007019 494.143494,619.277527 493.887543,617.324829 
	C495.313721,615.288574 497.117493,615.736328 498.701233,615.705322 
	C518.018799,615.326477 537.464417,616.219849 556.613281,614.237793 
	C570.607544,612.789246 577.241516,620.339661 583.319031,629.851440 
	C591.982117,643.409729 595.983276,658.617554 597.490601,674.574707 
	C599.494324,695.785889 598.933838,716.743042 592.248413,737.214172 
	C589.596680,745.333984 586.053711,753.018555 581.290649,760.119995 
	C580.260681,761.655701 579.190308,763.144897 579.363220,765.569214 
z"/>
<path fill="#000000" opacity="1.000000" stroke="none" 
	d="
M310.591614,655.666138 
	C317.269928,683.497681 317.069031,710.686829 307.280090,737.399292 
	C303.695435,747.181152 298.565094,756.085815 290.380585,762.922791 
	C277.619843,773.582520 260.801849,773.230408 248.646194,761.801697 
	C237.633102,751.447205 232.289566,737.975708 229.253555,723.673218 
	C222.814178,693.337463 224.081573,663.575806 237.855194,635.141296 
	C240.489929,629.701965 244.242767,624.996155 248.624451,620.849426 
	C262.944427,607.297119 282.170349,608.849243 295.542328,624.576904 
	C303.152863,633.528198 307.372833,644.127258 310.591614,655.666138 
z"/>
</svg>